# xmcd
#
# Track frame offsets:
#	150
#	17586
#	34047
#	51578
#	69079
#	84229
#	102653
#	118882
#	141640
#	161341
#	178121
#
# Disc length: 2602 seconds
# Revision: 0
# Processed by: cddbd v1.5.2PL0 Copyright (c) Steve Scherf et al.
# Submitted via: dBpowerAMP V12.0
#
DISCID=960a280b
DTITLE=Brittini Black - Good Happens
DYEAR=2008
DGENRE=Country
TTITLE0=Life is Good
TTITLE1=Pawn Shop Angel
TTITLE2=Good Happens
TTITLE3=I`m So There
TTITLE4=Knock Me Down
TTITLE5=I Want You to Live
TTITLE6=Be Brave
TTITLE7=James White
TTITLE8=Wild Horses
TTITLE9=Tell You
TTITLE10=What Else is There
EXTD=
EXTT0=
EXTT1=
EXTT2=
EXTT3=
EXTT4=
EXTT5=
EXTT6=
EXTT7=
EXTT8=
EXTT9=
EXTT10=
PLAYORDER=
